# xmcd
#
# Track frame offsets:
#	150
#	12389
#	23592
#	36084
#	47569
#	61986
#	72590
#	83321
#	94629
#	108294
#	118663
#	132574
#	145877
#	158780
#	172714
#	184788
#	198987
#	211718
#	223714
#	236850
#	250586
#	264286
#	276384
#	290304
#	302918
#	316436
#	329532
#
# Disc length: 4568 seconds
#
# Revision: 0
# Processed by: cddbd v1.5.2PL0 Copyright (c) Steve Scherf et al.
# Submitted via: audiograbber 1.83.01
#
DISCID=7f11d61b
DTITLE=B.B. King - Ladies and Gentlemen.... Mr. B.B. King [CD 01) - Three O'Clock
DTITLE=Blues (1949-1956)
DYEAR=2012
DGENRE=Blues
TTITLE0=Miss Martha King [mono]
TTITLE1=When Your Baby Packs Up And Goes [mono]
TTITLE2=Got The Blues [mono]
TTITLE3=Take A Swing With Me [mono]
TTITLE4=B.B. Boogie [mono]
TTITLE5=Don't You Want A Man Like Me [mono]
TTITLE6=Fine Looking Woman [mono]
TTITLE7=She's Dynamite [mono]
TTITLE8=Three O'Clock Blues [mono]
TTITLE9=That Ain't The Way To Do It [mono]
TTITLE10=You Know I Love You [mono]
TTITLE11=Woke Up This Morning [mono]
TTITLE12=Please Love Me [mono]
TTITLE13=Blind Love [mono]
TTITLE14=The Woman I Love [mono]
TTITLE15=Whole Lotta' Love [mono]
TTITLE16=Everyday I Have The Blues [mono]
TTITLE17=Love You Baby (a/k/a Take A Swing With Me) [mono]
TTITLE18=When My Heart Beats Like A Hammer [mono]
TTITLE19=You Upset Me Baby [mono]
TTITLE20=Sneakin' Around [mono]
TTITLE21=Shut Your Mouth [mono]
TTITLE22=Boogie Rock [mono]
TTITLE23=Ten Long Years [mono]
TTITLE24=Crying Won't Help You [mono]
TTITLE25=Bad Luck [mono]
TTITLE26=Troubles, Troubles, Troubles [mono]
EXTD=
EXTT0=
EXTT1=
EXTT2=
EXTT3=
EXTT4=
EXTT5=
EXTT6=
EXTT7=
EXTT8=
EXTT9=
EXTT10=
EXTT11=
EXTT12=
EXTT13=
EXTT14=
EXTT15=
EXTT16=
EXTT17=
EXTT18=
EXTT19=
EXTT20=
EXTT21=
EXTT22=
EXTT23=
EXTT24=
EXTT25=
EXTT26=
PLAYORDER=
